<svg width="100" height="45" viewBox="0 0 550 280" fill="none" xmlns="http://www.w3.org/2000/svg">
<path d="M28.7 74.5C25.5 74.5 22.2333 74.2 18.9 73.6C15.5667 73 12.3 72.1667 9.1 71.1C5.96667 69.9667 3.03333 68.6667 0.3 67.2L2.3 43.9H3.9L9.1 58C10.1 61.2667 11.6 64.0333 13.6 66.3C15.6667 68.5 18.1 70.1667 20.9 71.3C23.7667 72.4333 26.8667 73 30.2 73C33.2 73 35.7333 72.6 37.8 71.8C39.9333 70.9333 41.5667 69.7333 42.7 68.2C43.8333 66.6667 44.4 64.8333 44.4 62.7C44.4 60.3 43.8 58.1667 42.6 56.3C41.4 54.3667 39.3667 52.4333 36.5 50.5C33.7 48.5 29.9 46.3667 25.1 44.1C18.9667 40.9 14.1 38.0333 10.5 35.5C6.96667 32.9667 4.43333 30.4667 2.9 28C1.36667 25.4667 0.6 22.7667 0.6 19.9C0.6 17.1 1.23333 14.5333 2.5 12.2C3.83333 9.86666 5.73333 7.83333 8.2 6.1C10.6667 4.36666 13.6333 3.03333 17.1 2.09999C20.5667 1.16666 24.4333 0.699995 28.7 0.699995C32.5667 0.699995 36.1667 1.03333 39.5 1.69999C42.9 2.36666 45.9667 3.26666 48.7 4.4C51.5 5.53333 53.8333 6.83333 55.7 8.3L52 30.2H50.4L48 21.2C46.6667 16.6667 45.0333 13.0333 43.1 10.3C41.1667 7.5 38.9 5.46666 36.3 4.2C33.7667 2.86667 30.8 2.2 27.4 2.2C24.0667 2.2 21.2 2.6 18.8 3.4C16.4667 4.2 14.6667 5.36667 13.4 6.9C12.2 8.43333 11.6 10.2667 11.6 12.4C11.6 14.6 12.3 16.7 13.7 18.7C15.1 20.6333 17.4667 22.7 20.8 24.9C24.1333 27.0333 28.6333 29.4667 34.3 32.2C38.7667 34.2667 42.4667 36.2333 45.4 38.1C48.4 39.9 50.8 41.7 52.6 43.5C54.4667 45.3 55.8 47.1333 56.6 49C57.4 50.8667 57.8 52.9333 57.8 55.2C57.8 58 57.2333 60.4667 56.1 62.6C55.0333 64.6667 53.5667 66.4667 51.7 68C49.8333 69.4667 47.6667 70.7 45.2 71.7C42.7333 72.6333 40.0667 73.3333 37.2 73.8C34.4 74.2667 31.5667 74.5 28.7 74.5ZM95.3016 74.5C92.1016 74.5 88.8349 74.2 85.5016 73.6C82.1682 73 78.9016 72.1667 75.7016 71.1C72.5682 69.9667 69.6349 68.6667 66.9016 67.2L68.9016 43.9H70.5016L75.7016 58C76.7016 61.2667 78.2016 64.0333 80.2016 66.3C82.2682 68.5 84.7016 70.1667 87.5016 71.3C90.3682 72.4333 93.4682 73 96.8016 73C99.8016 73 102.335 72.6 104.402 71.8C106.535 70.9333 108.168 69.7333 109.302 68.2C110.435 66.6667 111.002 64.8333 111.002 62.7C111.002 60.3 110.402 58.1667 109.202 56.3C108.002 54.3667 105.968 52.4333 103.102 50.5C100.302 48.5 96.5016 46.3667 91.7016 44.1C85.5682 40.9 80.7016 38.0333 77.1016 35.5C73.5682 32.9667 71.0349 30.4667 69.5016 28C67.9682 25.4667 67.2016 22.7667 67.2016 19.9C67.2016 17.1 67.8349 14.5333 69.1016 12.2C70.4349 9.86666 72.3349 7.83333 74.8016 6.1C77.2682 4.36666 80.2349 3.03333 83.7016 2.09999C87.1682 1.16666 91.0349 0.699995 95.3016 0.699995C99.1682 0.699995 102.768 1.03333 106.102 1.69999C109.502 2.36666 112.568 3.26666 115.302 4.4C118.102 5.53333 120.435 6.83333 122.302 8.3L118.602 30.2H117.002L114.602 21.2C113.268 16.6667 111.635 13.0333 109.702 10.3C107.768 7.5 105.502 5.46666 102.902 4.2C100.368 2.86667 97.4016 2.2 94.0016 2.2C90.6682 2.2 87.8016 2.6 85.4016 3.4C83.0682 4.2 81.2682 5.36667 80.0016 6.9C78.8016 8.43333 78.2016 10.2667 78.2016 12.4C78.2016 14.6 78.9016 16.7 80.3016 18.7C81.7016 20.6333 84.0682 22.7 87.4016 24.9C90.7349 27.0333 95.2349 29.4667 100.902 32.2C105.368 34.2667 109.068 36.2333 112.002 38.1C115.002 39.9 117.402 41.7 119.202 43.5C121.068 45.3 122.402 47.1333 123.202 49C124.002 50.8667 124.402 52.9333 124.402 55.2C124.402 58 123.835 60.4667 122.702 62.6C121.635 64.6667 120.168 66.4667 118.302 68C116.435 69.4667 114.268 70.7 111.802 71.7C109.335 72.6333 106.668 73.3333 103.802 73.8C101.002 74.2667 98.1682 74.5 95.3016 74.5ZM158.903 21.5C163.236 21.5 167.07 22.1333 170.403 23.4C173.736 24.6667 176.536 26.5 178.803 28.9C181.07 31.3 182.77 34.1667 183.903 37.5C185.103 40.7667 185.703 44.4 185.703 48.4C185.703 52.0667 185.103 55.5 183.903 58.7C182.77 61.8333 181.07 64.6 178.803 67C176.536 69.3333 173.736 71.1667 170.403 72.5C167.136 73.8333 163.303 74.5 158.903 74.5C154.503 74.5 150.603 73.8333 147.203 72.5C143.87 71.1667 141.07 69.3333 138.803 67C136.603 64.6 134.936 61.8333 133.803 58.7C132.67 55.5 132.103 52.0667 132.103 48.4C132.103 44.4 132.703 40.7667 133.903 37.5C135.17 34.1667 136.936 31.3 139.203 28.9C141.536 26.5 144.37 24.6667 147.703 23.4C151.036 22.1333 154.77 21.5 158.903 21.5ZM159.003 22.7C156.136 22.7 153.77 23.8333 151.903 26.1C150.036 28.3667 148.636 31.4333 147.703 35.3C146.836 39.1667 146.403 43.5333 146.403 48.4C146.403 51.8 146.636 55.0333 147.103 58.1C147.57 61.1 148.303 63.7333 149.303 66C150.37 68.2667 151.703 70.0667 153.303 71.4C154.903 72.6667 156.77 73.3 158.903 73.3C161.036 73.3 162.87 72.6667 164.403 71.4C166.003 70.1333 167.336 68.3667 168.403 66.1C169.47 63.7667 170.236 61.1 170.703 58.1C171.17 55.1 171.403 51.8667 171.403 48.4C171.403 44.8 171.17 41.4333 170.703 38.3C170.236 35.1667 169.503 32.4333 168.503 30.1C167.503 27.7667 166.203 25.9667 164.603 24.7C163.07 23.3667 161.203 22.7 159.003 22.7ZM211.245 74.4C206.379 74.4 202.712 72.9667 200.245 70.1C197.845 67.1667 196.645 62.7667 196.645 56.9V26.1H190.745V25.1L210.645 21.5V58.9C210.645 62.3667 211.245 65 212.445 66.8C213.645 68.6 215.345 69.5 217.545 69.5C219.479 69.5 221.412 68.7667 223.345 67.3C225.345 65.7667 227.212 63.7333 228.945 61.2C230.679 58.6 232.112 55.6667 233.245 52.4V26.1H227.445V25.1L247.245 21.5V69.8H253.145V70.9L233.245 74.5V58.1L232.445 57.3C229.779 63.0333 226.645 67.3333 223.045 70.2C219.512 73 215.579 74.4 211.245 74.4ZM259.149 73V72L264.549 70.7V26.2H258.749V25.1L278.549 21.5V37.2L279.349 38C280.283 35.8 281.183 33.8333 282.049 32.1C282.983 30.3 283.916 28.8333 284.849 27.7C286.449 25.5667 288.183 24 290.049 23C291.983 22 294.116 21.5 296.449 21.5C298.049 21.5 299.583 21.8333 301.049 22.5C302.516 23.1 303.716 24.0667 304.649 25.4C305.583 26.6667 306.049 28.3 306.049 30.3C306.049 31.8333 305.649 33.2333 304.849 34.5C304.049 35.7667 302.949 36.7667 301.549 37.5C300.149 38.2333 298.449 38.6 296.449 38.6C294.716 38.6 293.149 38.3 291.749 37.7C290.349 37.0333 289.249 36.1667 288.449 35.1C287.716 33.9667 287.349 32.7 287.349 31.3C287.349 30.7667 287.383 30.3 287.449 29.9C287.583 29.4333 287.683 29 287.749 28.6C287.883 28.2 287.949 27.8333 287.949 27.5C287.949 27.0333 287.783 26.8 287.449 26.8C286.849 26.8 286.116 27.3667 285.249 28.5C284.449 29.6333 283.483 31.3667 282.349 33.7C281.749 35.0333 281.116 36.5667 280.449 38.3C279.783 40.0333 279.149 41.8667 278.549 43.8V70.7L284.049 72V73H259.149Z" fill="white"/>
</svg>
